<svg xmlns="http://www.w3.org/2000/svg" xmlns:xlink="http://www.w3.org/1999/xlink" contentStyleType="text/css" data-diagram-type="DESCRIPTION" height="1012px" preserveAspectRatio="none" style="width:1395px;height:1012px;background:#FFFFFF;" version="1.1" viewBox="0 0 1395 1012" width="1395px" zoomAndPan="magnify"><defs/><g><!--cluster ??????? ???????--><g class="cluster" data-entity="....... ......." data-source-line="8" data-uid="ent0002" id="cluster_....... ......."><path d="M483,6 L623.5186,6 A7.5,7.5 0 0 1 628.5186,11 L635.5186,28.2969 L661,28.2969 A5,5 0 0 1 666,33.2969 L666,237.89 A5,5 0 0 1 661,242.89 L483,242.89 A5,5 0 0 1 478,237.89 L478,11 A5,5 0 0 1 483,6" fill="none" style="stroke:#000000;stroke-width:1.5;"/><line style="stroke:#000000;stroke-width:1.5;" x1="478" x2="635.5186" y1="28.2969" y2="28.2969"/><text fill="#000000" font-family="Arial" font-size="14" font-weight="bold" lengthAdjust="spacing" textLength="144.5186" x="482" y="20.9951">&#1042;&#1085;&#1077;&#1096;&#1085;&#1080;&#1081; &#1091;&#1088;&#1086;&#1074;&#1077;&#1085;&#1100;</text></g><!--cluster ????????? ????--><g class="cluster" data-entity="......... ...." data-source-line="13" data-uid="ent0005" id="cluster_......... ...."><path d="M488,291.89 L615.7559,291.89 A7.5,7.5 0 0 1 620.7559,296.89 L627.7559,314.1869 L648,314.1869 A5,5 0 0 1 653,319.1869 L653,540.08 A5,5 0 0 1 648,545.08 L488,545.08 A5,5 0 0 1 483,540.08 L483,296.89 A5,5 0 0 1 488,291.89" fill="none" style="stroke:#000000;stroke-width:1.5;"/><line style="stroke:#000000;stroke-width:1.5;" x1="483" x2="627.7559" y1="314.1869" y2="314.1869"/><text fill="#000000" font-family="Arial" font-size="14" font-weight="bold" lengthAdjust="spacing" textLength="131.7559" x="487" y="306.8851">&#1057;&#1077;&#1088;&#1074;&#1080;&#1089;&#1085;&#1099;&#1081; &#1089;&#1083;&#1086;&#1081;</text></g><!--cluster ???????? ???????--><g class="cluster" data-entity="........ ......." data-source-line="18" data-uid="ent0008" id="cluster_........ ......."><path d="M11,729.08 L159.4961,729.08 A7.5,7.5 0 0 1 164.4961,734.08 L171.4961,751.3769 L517,751.3769 A5,5 0 0 1 522,756.3769 L522,837.68 A5,5 0 0 1 517,842.68 L11,842.68 A5,5 0 0 1 6,837.68 L6,734.08 A5,5 0 0 1 11,729.08" fill="none" style="stroke:#000000;stroke-width:1.5;"/><line style="stroke:#000000;stroke-width:1.5;" x1="6" x2="171.4961" y1="751.3769" y2="751.3769"/><text fill="#000000" font-family="Arial" font-size="14" font-weight="bold" lengthAdjust="spacing" textLength="152.4961" x="10" y="744.0751">&#1054;&#1089;&#1085;&#1086;&#1074;&#1085;&#1099;&#1077; &#1089;&#1077;&#1088;&#1074;&#1080;&#1089;&#1099;</text></g><!--cluster ???? ??????--><g class="cluster" data-entity=".... ......" data-source-line="24" data-uid="ent0012" id="cluster_.... ......"><path d="M369,891.68 L472.5771,891.68 A7.5,7.5 0 0 1 477.5771,896.68 L484.5771,913.9769 L694,913.9769 A5,5 0 0 1 699,918.9769 L699,1000.27 A5,5 0 0 1 694,1005.27 L369,1005.27 A5,5 0 0 1 364,1000.27 L364,896.68 A5,5 0 0 1 369,891.68" fill="#F3E5F5" style="stroke:#000000;stroke-width:1.5;"/><line style="stroke:#000000;stroke-width:1.5;" x1="364" x2="484.5771" y1="913.9769" y2="913.9769"/><text fill="#000000" font-family="Arial" font-size="14" font-weight="bold" lengthAdjust="spacing" textLength="107.5771" x="368" y="906.6751">&#1041;&#1072;&#1079;&#1099; &#1076;&#1072;&#1085;&#1085;&#1099;&#1093;</text></g><!--cluster ?????? ????????????--><g class="cluster" data-entity="...... ............" data-source-line="29" data-uid="ent0015" id="cluster_...... ............"><path d="M872,891.68 L1047.6006,891.68 A7.5,7.5 0 0 1 1052.6006,896.68 L1059.6006,913.9769 L1193,913.9769 A5,5 0 0 1 1198,918.9769 L1198,1000.27 A5,5 0 0 1 1193,1005.27 L872,1005.27 A5,5 0 0 1 867,1000.27 L867,896.68 A5,5 0 0 1 872,891.68" fill="#E8F5E9" style="stroke:#000000;stroke-width:1.5;"/><line style="stroke:#000000;stroke-width:1.5;" x1="867" x2="1059.6006" y1="913.9769" y2="913.9769"/><text fill="#000000" font-family="Arial" font-size="14" font-weight="bold" lengthAdjust="spacing" textLength="179.6006" x="871" y="906.6751">&#1044;&#1072;&#1085;&#1085;&#1099;&#1077; &#1087;&#1086;&#1083;&#1100;&#1079;&#1086;&#1074;&#1072;&#1090;&#1077;&#1083;&#1103;</text></g><!--entity U--><g class="entity" data-entity="U" data-source-line="9" data-uid="ent0003" id="entity_U"><rect fill="#F1F1F1" height="46.2969" rx="5" ry="5" style="stroke:#181818;stroke-width:0.5;" width="143.0996" x="494.45" y="41"/><rect fill="#F1F1F1" height="10" style="stroke:#181818;stroke-width:0.5;" width="15" x="617.5496" y="46"/><rect fill="#F1F1F1" height="2" style="stroke:#181818;stroke-width:0.5;" width="4" x="615.5496" y="48"/><rect fill="#F1F1F1" height="2" style="stroke:#181818;stroke-width:0.5;" width="4" x="615.5496" y="52"/><text fill="#000000" font-family="Arial" font-size="14" lengthAdjust="spacing" textLength="103.0996" x="509.45" y="73.9951">&#1055;&#1086;&#1083;&#1100;&#1079;&#1086;&#1074;&#1072;&#1090;&#1077;&#1083;&#1100;</text></g><!--entity UI--><g class="entity" data-entity="UI" data-source-line="10" data-uid="ent0004" id="entity_UI"><rect fill="#F1F1F1" height="62.5938" rx="5" ry="5" style="stroke:#181818;stroke-width:0.5;" width="147.666" x="494.17" y="164.3"/><rect fill="#F1F1F1" height="10" style="stroke:#181818;stroke-width:0.5;" width="15" x="621.836" y="169.3"/><rect fill="#F1F1F1" height="2" style="stroke:#181818;stroke-width:0.5;" width="4" x="619.836" y="171.3"/><rect fill="#F1F1F1" height="2" style="stroke:#181818;stroke-width:0.5;" width="4" x="619.836" y="175.3"/><text fill="#000000" font-family="Arial" font-size="14" lengthAdjust="spacing" textLength="50.1689" x="509.17" y="197.2951">Web UI</text><text fill="#000000" font-family="Arial" font-size="14" lengthAdjust="spacing" textLength="107.666" x="509.17" y="213.592">React Frontend</text></g><!--entity API--><g class="entity" data-entity="API" data-source-line="14" data-uid="ent0006" id="entity_API"><rect fill="#F1F1F1" height="62.5938" rx="5" ry="5" style="stroke:#181818;stroke-width:0.5;" width="136.1543" x="499.92" y="326.89"/><rect fill="#F1F1F1" height="10" style="stroke:#181818;stroke-width:0.5;" width="15" x="616.0743" y="331.89"/><rect fill="#F1F1F1" height="2" style="stroke:#181818;stroke-width:0.5;" width="4" x="614.0743" y="333.89"/><rect fill="#F1F1F1" height="2" style="stroke:#181818;stroke-width:0.5;" width="4" x="614.0743" y="337.89"/><text fill="#000000" font-family="Arial" font-size="14" lengthAdjust="spacing" textLength="96.1543" x="514.92" y="359.8851">Web Backend</text><text fill="#000000" font-family="Arial" font-size="14" lengthAdjust="spacing" textLength="51.5635" x="514.92" y="376.182">FastAPI</text></g><!--entity AG--><g class="entity" data-entity="AG" data-source-line="15" data-uid="ent0007" id="entity_AG"><rect fill="#F1F1F1" height="62.5938" rx="5" ry="5" style="stroke:#181818;stroke-width:0.5;" width="137.6309" x="499.18" y="466.49"/><rect fill="#F1F1F1" height="10" style="stroke:#181818;stroke-width:0.5;" width="15" x="616.8109" y="471.49"/><rect fill="#F1F1F1" height="2" style="stroke:#181818;stroke-width:0.5;" width="4" x="614.8109" y="473.49"/><rect fill="#F1F1F1" height="2" style="stroke:#181818;stroke-width:0.5;" width="4" x="614.8109" y="477.49"/><text fill="#000000" font-family="Arial" font-size="14" lengthAdjust="spacing" textLength="97.6309" x="514.18" y="499.4851">Agent Service</text><text fill="#000000" font-family="Arial" font-size="14" lengthAdjust="spacing" textLength="88.8877" x="514.18" y="515.782">Orchestrator</text></g><!--entity LLM--><g class="entity" data-entity="LLM" data-source-line="19" data-uid="ent0009" id="entity_LLM"><rect fill="#F1F1F1" height="62.5938" rx="5" ry="5" style="stroke:#181818;stroke-width:0.5;" width="142.1494" x="182.93" y="764.08"/><rect fill="#F1F1F1" height="10" style="stroke:#181818;stroke-width:0.5;" width="15" x="305.0794" y="769.08"/><rect fill="#F1F1F1" height="2" style="stroke:#181818;stroke-width:0.5;" width="4" x="303.0794" y="771.08"/><rect fill="#F1F1F1" height="2" style="stroke:#181818;stroke-width:0.5;" width="4" x="303.0794" y="775.08"/><text fill="#000000" font-family="Arial" font-size="14" lengthAdjust="spacing" textLength="83.8701" x="197.93" y="797.0751">LLM Service</text><text fill="#000000" font-family="Arial" font-size="14" lengthAdjust="spacing" textLength="102.1494" x="197.93" y="813.372">(Z.ai / OpenAI)</text></g><!--entity RET--><g class="entity" data-entity="RET" data-source-line="20" data-uid="ent0010" id="entity_RET"><rect fill="#F1F1F1" height="62.5938" rx="5" ry="5" style="stroke:#181818;stroke-width:0.5;" width="126.3447" x="21.83" y="764.08"/><rect fill="#F1F1F1" height="10" style="stroke:#181818;stroke-width:0.5;" width="15" x="128.1747" y="769.08"/><rect fill="#F1F1F1" height="2" style="stroke:#181818;stroke-width:0.5;" width="4" x="126.1747" y="771.08"/><rect fill="#F1F1F1" height="2" style="stroke:#181818;stroke-width:0.5;" width="4" x="126.1747" y="775.08"/><text fill="#000000" font-family="Arial" font-size="14" lengthAdjust="spacing" textLength="86.3447" x="36.83" y="797.0751">RAG Service</text><text fill="#000000" font-family="Arial" font-size="14" lengthAdjust="spacing" textLength="73.7666" x="36.83" y="813.372">(Retrieval)</text></g><!--entity GEN--><g class="entity" data-entity="GEN" data-source-line="21" data-uid="ent0011" id="entity_GEN"><rect fill="#F1F1F1" height="62.5938" rx="5" ry="5" style="stroke:#181818;stroke-width:0.5;" width="145.4922" x="360.25" y="764.08"/><rect fill="#F1F1F1" height="10" style="stroke:#181818;stroke-width:0.5;" width="15" x="485.7422" y="769.08"/><rect fill="#F1F1F1" height="2" style="stroke:#181818;stroke-width:0.5;" width="4" x="483.7422" y="771.08"/><rect fill="#F1F1F1" height="2" style="stroke:#181818;stroke-width:0.5;" width="4" x="483.7422" y="775.08"/><text fill="#000000" font-family="Arial" font-size="14" lengthAdjust="spacing" textLength="105.4922" x="375.25" y="797.0751">Test Generator</text><text fill="#000000" font-family="Arial" font-size="14" lengthAdjust="spacing" textLength="94.4863" x="375.25" y="813.372">(Quiz Engine)</text></g><!--entity VDB--><g class="entity" data-entity="VDB" data-source-line="25" data-uid="ent0013" id="entity_VDB"><rect fill="#F1F1F1" height="62.5938" rx="5" ry="5" style="stroke:#181818;stroke-width:0.5;" width="110.5332" x="379.73" y="926.68"/><rect fill="#F1F1F1" height="10" style="stroke:#181818;stroke-width:0.5;" width="15" x="470.2632" y="931.68"/><rect fill="#F1F1F1" height="2" style="stroke:#181818;stroke-width:0.5;" width="4" x="468.2632" y="933.68"/><rect fill="#F1F1F1" height="2" style="stroke:#181818;stroke-width:0.5;" width="4" x="468.2632" y="937.68"/><text fill="#000000" font-family="Arial" font-size="14" lengthAdjust="spacing" textLength="48.6035" x="394.73" y="959.6751">Qdrant</text><text fill="#000000" font-family="Arial" font-size="14" lengthAdjust="spacing" textLength="70.5332" x="394.73" y="975.972">Vector DB</text></g><!--entity REDIS--><g class="entity" data-entity="REDIS" data-source-line="26" data-uid="ent0014" id="entity_REDIS"><rect fill="#F1F1F1" height="62.5938" rx="5" ry="5" style="stroke:#181818;stroke-width:0.5;" width="158.1318" x="524.93" y="926.68"/><rect fill="#F1F1F1" height="10" style="stroke:#181818;stroke-width:0.5;" width="15" x="663.0618" y="931.68"/><rect fill="#F1F1F1" height="2" style="stroke:#181818;stroke-width:0.5;" width="4" x="661.0618" y="933.68"/><rect fill="#F1F1F1" height="2" style="stroke:#181818;stroke-width:0.5;" width="4" x="661.0618" y="937.68"/><text fill="#000000" font-family="Arial" font-size="14" lengthAdjust="spacing" textLength="38.4111" x="539.93" y="959.6751">Redis</text><text fill="#000000" font-family="Arial" font-size="14" lengthAdjust="spacing" textLength="118.1318" x="539.93" y="975.972">Cache &amp; Storage</text></g><!--entity DB--><g class="entity" data-entity="DB" data-source-line="30" data-uid="ent0016" id="entity_DB"><rect fill="#F1F1F1" height="62.5938" rx="5" ry="5" style="stroke:#181818;stroke-width:0.5;" width="131.1367" x="1050.43" y="926.68"/><rect fill="#F1F1F1" height="10" style="stroke:#181818;stroke-width:0.5;" width="15" x="1161.5667" y="931.68"/><rect fill="#F1F1F1" height="2" style="stroke:#181818;stroke-width:0.5;" width="4" x="1159.5667" y="933.68"/><rect fill="#F1F1F1" height="2" style="stroke:#181818;stroke-width:0.5;" width="4" x="1159.5667" y="937.68"/><text fill="#000000" font-family="Arial" font-size="14" lengthAdjust="spacing" textLength="91.1367" x="1065.43" y="959.6751">User Storage</text><text fill="#000000" font-family="Arial" font-size="14" lengthAdjust="spacing" textLength="80.7529" x="1065.43" y="975.972">PostgreSQL</text></g><!--entity FS--><g class="entity" data-entity="FS" data-source-line="31" data-uid="ent0017" id="entity_FS"><rect fill="#F1F1F1" height="62.5938" rx="5" ry="5" style="stroke:#181818;stroke-width:0.5;" width="132.6543" x="882.67" y="926.68"/><rect fill="#F1F1F1" height="10" style="stroke:#181818;stroke-width:0.5;" width="15" x="995.3243" y="931.68"/><rect fill="#F1F1F1" height="2" style="stroke:#181818;stroke-width:0.5;" width="4" x="993.3243" y="933.68"/><rect fill="#F1F1F1" height="2" style="stroke:#181818;stroke-width:0.5;" width="4" x="993.3243" y="937.68"/><text fill="#000000" font-family="Arial" font-size="14" lengthAdjust="spacing" textLength="92.6543" x="897.67" y="959.6751">Data Storage</text><text fill="#000000" font-family="Arial" font-size="14" lengthAdjust="spacing" textLength="57.9209" x="897.67" y="975.972">Local FS</text></g><!--entity SRC--><g class="entity" data-entity="SRC" data-source-line="41" data-uid="ent0023" id="entity_SRC"><ellipse cx="568" cy="795.38" fill="#F1F1F1" rx="8" ry="8" style="stroke:#181818;stroke-width:0.5;"/><text fill="#000000" font-family="Arial" font-size="14" lengthAdjust="spacing" textLength="28.3896" x="553.8052" y="825.3751">SRC</text></g><!--entity FUNC--><g class="entity" data-entity="FUNC" data-source-line="42" data-uid="ent0025" id="entity_FUNC"><ellipse cx="1216" cy="795.38" fill="#F1F1F1" rx="8" ry="8" style="stroke:#181818;stroke-width:0.5;"/><text fill="#000000" font-family="Arial" font-size="14" lengthAdjust="spacing" textLength="38.5479" x="1196.7261" y="825.3751">FUNC</text></g><!--entity MQ--><g class="entity" data-entity="MQ" data-source-line="43" data-uid="ent0027" id="entity_MQ"><ellipse cx="755" cy="637.08" fill="#F1F1F1" rx="8" ry="8" style="stroke:#181818;stroke-width:0.5;"/><text fill="#000000" font-family="Arial" font-size="14" lengthAdjust="spacing" textLength="23.0986" x="743.4507" y="667.0751">MQ</text></g><!--entity IDX--><g class="entity" data-entity="IDX" data-source-line="46" data-uid="ent0030" id="entity_IDX"><ellipse cx="302" cy="957.97" fill="#F1F1F1" rx="8" ry="8" style="stroke:#181818;stroke-width:0.5;"/><text fill="#000000" font-family="Arial" font-size="14" lengthAdjust="spacing" textLength="24.5" x="289.75" y="987.9651">IDX</text></g><!--entity WP--><g class="entity" data-entity="WP" data-source-line="55" data-uid="ent0037" id="entity_WP"><ellipse cx="807" cy="795.38" fill="#F1F1F1" rx="8" ry="8" style="stroke:#181818;stroke-width:0.5;"/><text fill="#000000" font-family="Arial" font-size="14" lengthAdjust="spacing" textLength="22.2852" x="795.8574" y="825.3751">WP</text></g><!--link U to UI--><g class="link" data-entity-1="U" data-entity-2="UI" data-source-line="35" data-uid="lnk18" id="link_U_UI"><path d="M566.35,87.7 C566.68,108.85 567.0777,134.6507 567.4377,158.0607" fill="none" id="U-to-UI" style="stroke:#181818;stroke-width:1;"/><polygon fill="#181818" points="567.53,164.06,571.3911,154.9996,567.4531,159.0606,563.3921,155.1226,567.53,164.06" style="stroke:#181818;stroke-width:1;"/><text fill="#000000" font-family="Arial" font-size="13" lengthAdjust="spacing" textLength="119.2217" x="568.06" y="130.3669">HTTP / WebSocket</text></g><!--link UI to API--><g class="link" data-entity-1="UI" data-entity-2="API" data-source-line="36" data-uid="lnk19" id="link_UI_API"><path d="M568,227.18 C568,255.67 568,291.91 568,320.45" fill="none" id="UI-to-API" style="stroke:#181818;stroke-width:1;"/><polygon fill="#181818" points="568,326.45,572,317.45,568,321.45,564,317.45,568,326.45" style="stroke:#181818;stroke-width:1;"/><text fill="#000000" font-family="Arial" font-size="13" lengthAdjust="spacing" textLength="55.7388" x="569" y="271.9569">API Calls</text></g><!--link API to AG--><g class="link" data-entity-1="API" data-entity-2="AG" data-source-line="37" data-uid="lnk20" id="link_API_AG"><path d="M568,389.73 C568,412.53 568,437.55 568,460.33" fill="none" id="API-to-AG" style="stroke:#181818;stroke-width:1;"/><polygon fill="#181818" points="568,466.33,572,457.33,568,461.33,564,457.33,568,466.33" style="stroke:#181818;stroke-width:1;"/><text fill="#000000" font-family="Arial" font-size="13" lengthAdjust="spacing" textLength="53.3901" x="569" y="432.5569">Request</text></g><!--link AG to LLM--><g class="link" data-entity-1="AG" data-entity-2="LLM" data-source-line="39" data-uid="lnk21" id="link_AG_LLM"><path d="M535.58,529.31 C475.25,586.1 350.8092,703.2478 290.6092,759.9078" fill="none" id="AG-to-LLM" style="stroke:#181818;stroke-width:1;"/><polygon fill="#181818" points="286.24,764.02,295.5352,760.7644,289.881,760.5931,290.0522,754.9389,286.24,764.02" style="stroke:#181818;stroke-width:1;"/><text fill="#000000" font-family="Arial" font-size="13" lengthAdjust="spacing" textLength="60.874" x="448.34" y="641.6469">LLM Calls</text></g><!--link AG to RET--><g class="link" data-entity-1="AG" data-entity-2="RET" data-source-line="40" data-uid="lnk22" id="link_AG_RET"><path d="M498.94,515.21 C436.37,532.13 343.32,562.51 272,608.08 C204.04,651.51 144.9016,718.6056 112.2216,759.2156" fill="none" id="AG-to-RET" style="stroke:#181818;stroke-width:1;"/><polygon fill="#181818" points="108.46,763.89,117.2187,759.3861,111.5947,759.9947,110.9862,754.3706,108.46,763.89" style="stroke:#181818;stroke-width:1;"/><text fill="#000000" font-family="Arial" font-size="13" lengthAdjust="spacing" textLength="113.6421" x="273" y="641.6469">Context Retrieval</text></g><!--link AG to SRC--><g class="link" data-entity-1="AG" data-entity-2="SRC" data-source-line="41" data-uid="lnk24" id="link_AG_SRC"><path d="M568,529.31 C568,595.68 568,744.14 568,780.58" fill="none" id="AG-to-SRC" style="stroke:#181818;stroke-width:1;"/><polygon fill="#181818" points="568,786.58,572,777.58,568,781.58,564,777.58,568,786.58" style="stroke:#181818;stroke-width:1;"/><text fill="#000000" font-family="Arial" font-size="13" lengthAdjust="spacing" textLength="71.1318" x="569" y="641.6469">Fetch Data</text></g><!--link AG to FUNC--><g class="link" data-entity-1="AG" data-entity-2="FUNC" data-source-line="42" data-uid="lnk26" id="link_AG_FUNC"><path d="M637.22,518 C674.69,529.16 721.47,544.3 762,561.08 C947.44,637.89 1154.9614,758.3628 1201.5214,785.8128" fill="none" id="AG-to-FUNC" style="stroke:#181818;stroke-width:1;"/><polygon fill="#181818" points="1206.69,788.86,1200.9686,780.8434,1202.3828,786.3207,1196.9056,787.7349,1206.69,788.86" style="stroke:#181818;stroke-width:1;"/><text fill="#000000" font-family="Arial" font-size="13" lengthAdjust="spacing" textLength="106.6406" x="980.56" y="641.6469">Execute Feature</text></g><!--link AG to MQ--><g class="link" data-entity-1="AG" data-entity-2="MQ" data-source-line="43" data-uid="lnk28" id="link_AG_MQ"><path d="M609.5,529.26 C654.26,562.12 717.5041,608.5483 741.4541,626.1383" fill="none" id="AG-to-MQ" style="stroke:#181818;stroke-width:1;"/><polygon fill="#181818" points="746.29,629.69,741.404,621.1386,742.2601,626.7303,736.6684,627.5864,746.29,629.69" style="stroke:#181818;stroke-width:1;"/><text fill="#000000" font-family="Arial" font-size="13" lengthAdjust="spacing" textLength="79.8599" x="673.7" y="574.1469">Async Tasks</text></g><!--link RET to VDB--><g class="link" data-entity-1="RET" data-entity-2="VDB" data-source-line="45" data-uid="lnk29" id="link_RET_VDB"><path d="M120.75,827.17 C143.95,845.08 175.76,865.98 208,875.68 C237.42,884.53 317.4,872.47 346,883.68 C369.3,892.8 386.7566,906.309 402.9366,922.029" fill="none" id="RET-to-VDB" style="stroke:#181818;stroke-width:1;"/><polygon fill="#181818" points="407.24,926.21,403.5723,917.0695,403.6539,922.7258,397.9976,922.8074,407.24,926.21" style="stroke:#181818;stroke-width:1;"/><text fill="#000000" font-family="Arial" font-size="13" lengthAdjust="spacing" textLength="91.5142" x="209" y="871.7469">Vector Search</text></g><!--link RET to IDX--><g class="link" data-entity-1="RET" data-entity-2="IDX" data-source-line="46" data-uid="lnk31" id="link_RET_IDX"><path d="M55.35,826.83 C43.99,842.23 36.1,860.76 47,875.68 C108,959.15 249.5946,959.1661 287.1846,957.6861" fill="none" id="RET-to-IDX" style="stroke:#181818;stroke-width:1;"/><polygon fill="#181818" points="293.18,957.45,284.0296,953.8072,288.1839,957.6467,284.3443,961.801,293.18,957.45" style="stroke:#181818;stroke-width:1;"/><text fill="#000000" font-family="Arial" font-size="13" lengthAdjust="spacing" textLength="77.8096" x="48" y="871.7469">Text Search</text></g><!--link SRC to FS--><g class="link" data-entity-1="SRC" data-entity-2="FS" data-source-line="48" data-uid="lnk32" id="link_SRC_FS"><path d="M564.53,804.17 C558.08,819.98 546.48,856.02 565,875.68 C575.23,886.53 684.31,881.12 699,883.68 C762.39,894.71 826.8361,914.1983 876.6461,931.0383" fill="none" id="SRC-to-FS" style="stroke:#181818;stroke-width:1;"/><polygon fill="#181818" points="882.33,932.96,875.0852,926.2882,877.5934,931.3586,872.523,933.8668,882.33,932.96" style="stroke:#181818;stroke-width:1;"/><text fill="#000000" font-family="Arial" font-size="13" lengthAdjust="spacing" textLength="68.25" x="566" y="871.7469">Store Files</text></g><!--link SRC to VDB--><g class="link" data-entity-1="SRC" data-entity-2="VDB" data-source-line="49" data-uid="lnk33" id="link_SRC_VDB"><path d="M563.92,804.37 C557.12,816.74 542.18,840.21 522,850.68 C504.17,859.92 445.55,843.86 432,858.68 C415.63,876.56 416.8324,899.0451 422.4924,920.6951" fill="none" id="SRC-to-VDB" style="stroke:#181818;stroke-width:1;"/><polygon fill="#181818" points="424.01,926.5,425.6036,916.7809,422.7453,921.6626,417.8637,918.8044,424.01,926.5" style="stroke:#181818;stroke-width:1;"/><text fill="#000000" font-family="Arial" font-size="13" lengthAdjust="spacing" textLength="91.8506" x="433" y="871.7469">Index Content</text></g><!--link SRC to IDX--><g class="link" data-entity-1="SRC" data-entity-2="IDX" data-source-line="50" data-uid="lnk34" id="link_SRC_IDX"><path d="M564.2,804.08 C557.58,816.5 542.65,840.6 522,850.68 C502.01,860.43 338.94,844.26 322,858.68 C295.08,881.59 297.5085,924.0198 299.9785,943.0698" fill="none" id="SRC-to-IDX" style="stroke:#181818;stroke-width:1;"/><polygon fill="#181818" points="300.75,949.02,303.5596,939.5804,300.1071,944.0615,295.626,940.609,300.75,949.02" style="stroke:#181818;stroke-width:1;"/><text fill="#000000" font-family="Arial" font-size="13" lengthAdjust="spacing" textLength="91.8506" x="323" y="871.7469">Index Content</text></g><!--link FUNC to DB--><g class="link" data-entity-1="FUNC" data-entity-2="DB" data-source-line="52" data-uid="lnk35" id="link_FUNC_DB"><path d="M1212.6,804.52 C1206.34,819.19 1192.25,850.83 1177,875.68 C1166.29,893.12 1156.4666,906.724 1144.8666,921.554" fill="none" id="FUNC-to-DB" style="stroke:#181818;stroke-width:1;"/><polygon fill="#181818" points="1141.17,926.28,1149.8656,921.6555,1144.2505,922.3417,1143.5643,916.7266,1141.17,926.28" style="stroke:#181818;stroke-width:1;"/><text fill="#000000" font-family="Arial" font-size="13" lengthAdjust="spacing" textLength="83.5669" x="1187.63" y="871.7469">Save Results</text></g><!--link FUNC to DB--><g class="link" data-entity-1="FUNC" data-entity-2="DB" data-source-line="53" data-uid="lnk36" id="link_FUNC_DB"><path d="M1225.2,801.07 C1247.09,812.86 1299.03,845.01 1280,875.68 C1258.56,910.24 1223.2616,928.7015 1187.6216,940.3815" fill="none" id="FUNC-to-DB-1" style="stroke:#181818;stroke-width:1;"/><polygon fill="#181818" points="1181.92,942.25,1191.7181,943.2483,1186.6714,940.6929,1189.2267,935.6461,1181.92,942.25" style="stroke:#181818;stroke-width:1;"/><text fill="#000000" font-family="Arial" font-size="13" lengthAdjust="spacing" textLength="102.1846" x="1285.11" y="871.7469">Read User Data</text></g><!--link MQ to WP--><g class="link" data-entity-1="MQ" data-entity-2="WP" data-source-line="55" data-uid="lnk38" id="link_MQ_WP"><path d="M757.65,646.05 C766.59,672.92 793.6858,754.3568 802.5258,780.9268" fill="none" id="MQ-to-WP" style="stroke:#181818;stroke-width:1;"/><polygon fill="#181818" points="804.42,786.62,805.3742,776.8175,802.8415,781.8757,797.7833,779.343,804.42,786.62" style="stroke:#181818;stroke-width:1;"/><text fill="#000000" font-family="Arial" font-size="13" lengthAdjust="spacing" textLength="108.7861" x="780.44" y="709.1469">Background Jobs</text></g><!--link WP to FS--><g class="link" data-entity-1="WP" data-entity-2="FS" data-source-line="56" data-uid="lnk39" id="link_WP_FS"><path d="M815.75,799.44 C835.32,806.69 883,826.77 910,858.68 C926.48,878.16 934.9726,899.6766 940.7426,920.5666" fill="none" id="WP-to-FS" style="stroke:#181818;stroke-width:1;"/><polygon fill="#181818" points="942.34,926.35,943.7995,916.6099,941.0088,921.5305,936.0882,918.7398,942.34,926.35" style="stroke:#181818;stroke-width:1;"/><text fill="#000000" font-family="Arial" font-size="13" lengthAdjust="spacing" textLength="83.4336" x="922.51" y="871.7469">Process Files</text></g><!--link WP to VDB--><g class="link" data-entity-1="WP" data-entity-2="VDB" data-source-line="57" data-uid="lnk40" id="link_WP_VDB"><path d="M805.83,804.21 C802.9,820.79 793.54,859.23 768,875.68 C743.61,891.39 533.58,872.05 507,883.68 C486.41,892.69 472.4075,905.9023 459.6675,921.7623" fill="none" id="WP-to-VDB" style="stroke:#181818;stroke-width:1;"/><polygon fill="#181818" points="455.91,926.44,464.6648,921.9284,459.0413,922.5419,458.4278,916.9184,455.91,926.44" style="stroke:#181818;stroke-width:1;"/><text fill="#000000" font-family="Arial" font-size="13" lengthAdjust="spacing" textLength="100.4199" x="785.74" y="871.7469">Update Vectors</text></g><!--link WP to IDX--><g class="link" data-entity-1="WP" data-entity-2="IDX" data-source-line="58" data-uid="lnk41" id="link_WP_IDX"><path d="M798,800.28 C776.09,809.83 718.26,835.32 671,858.68 C656.56,865.81 654.57,871.56 639,875.68 C609.45,883.5 391.54,870.41 364,883.68 C334.57,897.85 316.5904,927.9473 308.5004,943.7773" fill="none" id="WP-to-IDX" style="stroke:#181818;stroke-width:1;"/><polygon fill="#181818" points="305.77,949.12,313.4275,942.9262,308.0454,944.6677,306.3038,939.2856,305.77,949.12" style="stroke:#181818;stroke-width:1;"/><text fill="#000000" font-family="Arial" font-size="13" lengthAdjust="spacing" textLength="87.2295" x="672" y="871.7469">Update Index</text></g><!--link WP to DB--><g class="link" data-entity-1="WP" data-entity-2="DB" data-source-line="59" data-uid="lnk42" id="link_WP_DB"><path d="M815.92,797.5 C845.91,801.58 945.13,817.61 1015,858.68 C1044.95,876.28 1068.8219,900.0646 1087.6419,921.7946" fill="none" id="WP-to-DB" style="stroke:#181818;stroke-width:1;"/><polygon fill="#181818" points="1091.57,926.33,1088.7015,916.9081,1088.2966,922.5505,1082.6543,922.1456,1091.57,926.33" style="stroke:#181818;stroke-width:1;"/><text fill="#000000" font-family="Arial" font-size="13" lengthAdjust="spacing" textLength="100.5977" x="1038.16" y="871.7469">Write Metadata</text></g><!--SRC=[VPJTRXj55CVlzoc68F5nKTYDl-AgH5glTuoHazfUEq5WBgQxKsULxMoOMOVG2ga58I6bKjKAYKf887W1AaJKLbNW5MRVY3EpOyVPPEkBjNr-n__pdpd7vvs8teqPHMFVcxYxlO6FmeG8OOd3c1qHJkuXI22B9CCfotR9FOfS7fDaZVDqmI8lvOnovDXhG0jrI7WuDob9oj6xMB-kfAKyejoasFgrbY8EI9H-4xCvkaiIGIth25J9dA8D-KoUoxFy9tY-agzH_aF-KFuh_vPdyZn_l84UM0XzAN-7q9lyiNofqOlyUy3m_Ij419ggZ7rw1qtxCpQc9CmGvd1KogA2zwtlrklz0TKUWigh_16KE5Kr7yat8FpQL5DQwj0WC6EOYCmTzhKIl2lkpYdBK43vSHpI6RlDmmCgCawob1TflSi5VrE5j75LxaoLMpd8JqtHmM3dGlA3BpuYCVeOtJwYpEr_g5KXGUMDtTvQtfXcFAR792bonlv4vKp03kfHQAVo16cZHNmV-MmEOr8azlpTonwVoXVoPNwAv3_muLmPpN_SW5RN_0Pk50v74ISicx4z6e8gwdQqqbwtestHA1OpvX6u2_GU2Y03X8sfRZ-uNEtdPH6u3VdVjRrz0jNzBTpmsqNrgO3XDB8pDan5DkSq60rqYS93bsJa8cMGXYH1ED09M1ju7trovOLW7fx9l-Glylarr9gY6pUsOOJGJVJfP3A4di1q12aCHsP1L46O2g3gwP4a4PRwfECz28_frmleXcN1DnLKRRwfdoQv24FZ8EofgJt9qAghInoCFS2OPk41KgTSnl5qLm7_X8QBZ482oHQSBkdEIFaItx8GJOWu59QboYW2JGDa6XbG0XEyOltkvy0coeSXbYglomL0r0L3gJYXOWKAlJwBw4bn29QjMA5tcLdQkABwXm4vXlL51UmeKKBmVuwGxhq-jmLdKcn_2EnYCQ7FqZl2Wk3AvP2d8HN2-3Iai3azYWXSLd7w5Iji6gRTBed-qJwF8Rv3Cn9f7rMZzATyBd-zVfHA-rAFTMctthhbzhQtOV0TtC2-uXTBTSbifz5ggtb7w3e162sL1Gkwvjjb1GFzPiEnxKe9c0GjeV_xPGa3wwvJt_8g9Q3vMiB1MtwxB65WhTPiEtwbX9e3RRRhjt2phB6azSPcowq-oix8N4RRgvSb3EjuzcQtKc1_M2rWMAE5dLQbGBUZ3s7Z5dRB0WMpxQRTh5VVGs04Dh5pvHQ2Gg3UhLVVmPwne9TfMS50fzFmDzys4R32YzlostxhwamOtC6rfkt1glqV]--></g></svg>