<svg xmlns="http://www.w3.org/2000/svg" xmlns:xlink="http://www.w3.org/1999/xlink" contentStyleType="text/css" data-diagram-type="ACTIVITY" height="670px" preserveAspectRatio="none" style="width:492px;height:670px;background:#FFFFFF;" version="1.1" viewBox="0 0 492 670" width="492px" zoomAndPan="magnify"><title>&#1044;&#1077;&#1090;&#1072;&#1083;&#1100;&#1085;&#1099;&#1081; flow &#1086;&#1073;&#1088;&#1072;&#1073;&#1086;&#1090;&#1082;&#1080; &#1076;&#1072;&#1085;&#1085;&#1099;&#1093;</title><defs/><g><g class="title" data-source-line="2"><text fill="#000000" font-family="Verdana" font-size="22" font-weight="bold" lengthAdjust="spacing" textLength="449.915" x="19.8657" y="35.4209">&#1044;&#1077;&#1090;&#1072;&#1083;&#1100;&#1085;&#1099;&#1081; flow &#1086;&#1073;&#1088;&#1072;&#1073;&#1086;&#1090;&#1082;&#1080; &#1076;&#1072;&#1085;&#1085;&#1099;&#1093;</text></g><ellipse cx="246.3232" cy="61.6094" fill="#FFFFFF" rx="10" ry="10" style="stroke:#000000;stroke-width:1;"/><rect fill="#FFFFFF" height="33.9688" rx="12.5" ry="12.5" style="stroke:#000000;stroke-width:1;" width="77.9727" x="207.3369" y="91.6094"/><text fill="#000000" font-family="Verdana" font-size="12" lengthAdjust="spacing" textLength="57.9727" x="217.3369" y="112.748">Raw Data</text><polygon fill="#FFFFFF" points="217.9531,145.5781,274.6934,145.5781,286.6934,157.5781,274.6934,169.5781,217.9531,169.5781,205.9531,157.5781,217.9531,145.5781" style="stroke:#000000;stroke-width:1;"/><text fill="#000000" font-family="Verdana" font-size="11" lengthAdjust="spacing" textLength="56.7402" x="217.9531" y="161.3862">Data Type</text><text fill="#000000" font-family="Verdana" font-size="11" lengthAdjust="spacing" textLength="61.2466" x="144.7065" y="154.9839">File Upload</text><text fill="#000000" font-family="Verdana" font-size="11" lengthAdjust="spacing" textLength="61.1499" x="286.6934" y="154.9839">API/Stream</text><rect fill="#FFFFFF" height="33.9688" rx="12.5" ry="12.5" style="stroke:#000000;stroke-width:1;" width="148.5488" x="90.2397" y="179.5781"/><text fill="#000000" font-family="Verdana" font-size="12" lengthAdjust="spacing" textLength="128.5488" x="100.2397" y="200.7168">Save to Data Storage</text><rect fill="#FFFFFF" height="33.9688" rx="12.5" ry="12.5" style="stroke:#000000;stroke-width:1;" width="138.6875" x="258.7886" y="179.5781"/><text fill="#000000" font-family="Verdana" font-size="12" lengthAdjust="spacing" textLength="118.6875" x="268.7886" y="200.7168">Save Raw Snapshot</text><polygon fill="#FFFFFF" points="246.3232,219.5469,258.3232,231.5469,246.3232,243.5469,234.3232,231.5469,246.3232,219.5469" style="stroke:#000000;stroke-width:1;"/><rect fill="#FFFFFF" height="33.9688" rx="12.5" ry="12.5" style="stroke:#000000;stroke-width:1;" width="143.457" x="174.5947" y="263.5469"/><text fill="#000000" font-family="Verdana" font-size="12" lengthAdjust="spacing" textLength="123.457" x="184.5947" y="284.6855">Parse &amp; Extract Text</text><rect fill="#FFFFFF" height="33.9688" rx="12.5" ry="12.5" style="stroke:#000000;stroke-width:1;" width="231.8164" x="130.415" y="317.5156"/><text fill="#000000" font-family="Verdana" font-size="12" lengthAdjust="spacing" textLength="211.8164" x="140.415" y="338.6543">Smart Chunking (512-2048 tokens)</text><line style="stroke:#000000;stroke-width:1.5;" x1="117.127" x2="371.4502" y1="371.4844" y2="371.4844"/><rect fill="#FFFFFF" height="33.9688" rx="12.5" ry="12.5" style="stroke:#000000;stroke-width:1;" width="154.1738" x="40.04" y="391.4844"/><text fill="#000000" font-family="Verdana" font-size="12" lengthAdjust="spacing" textLength="134.1738" x="50.04" y="412.623">Generate Embeddings</text><rect fill="#FFFFFF" height="33.9688" rx="12.5" ry="12.5" style="stroke:#000000;stroke-width:1;" width="222.2539" x="6" y="460.4531"/><text fill="#000000" font-family="Verdana" font-size="12" lengthAdjust="spacing" textLength="202.2539" x="16" y="481.5918">Store in Vector DB with metadata</text><rect fill="#FFFFFF" height="33.9688" rx="12.5" ry="12.5" style="stroke:#000000;stroke-width:1;" width="230.3926" x="256.2539" y="425.9688"/><text fill="#000000" font-family="Verdana" font-size="12" lengthAdjust="spacing" textLength="210.3926" x="266.2539" y="447.1074">Index in Elasticsearch with full text</text><line style="stroke:#000000;stroke-width:1.5;" x1="117.127" x2="371.4502" y1="514.4219" y2="514.4219"/><rect fill="#FFFFFF" height="33.9688" rx="12.5" ry="12.5" style="stroke:#000000;stroke-width:1;" width="147.7578" x="172.4443" y="534.4219"/><text fill="#000000" font-family="Verdana" font-size="12" lengthAdjust="spacing" textLength="127.7578" x="182.4443" y="555.5605">Update Status: ready</text><rect fill="#FFFFFF" height="33.9688" rx="12.5" ry="12.5" style="stroke:#000000;stroke-width:1;" width="152.0527" x="170.2969" y="588.3906"/><text fill="#000000" font-family="Verdana" font-size="12" lengthAdjust="spacing" textLength="132.0527" x="180.2969" y="609.5293">Notify UI/Orchestrator</text><ellipse cx="246.3232" cy="653.3594" fill="none" rx="11" ry="11" style="stroke:#000000;stroke-width:1;"/><ellipse cx="246.3232" cy="653.3594" fill="#FFFFFF" rx="6" ry="6" style="stroke:#000000;stroke-width:1;"/><line style="stroke:#000000;stroke-width:1;" x1="246.3232" x2="246.3232" y1="71.6094" y2="91.6094"/><polygon fill="#000000" points="242.3232,81.6094,246.3232,91.6094,250.3232,81.6094,246.3232,85.6094" style="stroke:#000000;stroke-width:1;"/><line style="stroke:#000000;stroke-width:1;" x1="205.9531" x2="164.5142" y1="157.5781" y2="157.5781"/><line style="stroke:#000000;stroke-width:1;" x1="164.5142" x2="164.5142" y1="157.5781" y2="179.5781"/><polygon fill="#000000" points="160.5142,169.5781,164.5142,179.5781,168.5142,169.5781,164.5142,173.5781" style="stroke:#000000;stroke-width:1;"/><line style="stroke:#000000;stroke-width:1;" x1="286.6934" x2="328.1323" y1="157.5781" y2="157.5781"/><line style="stroke:#000000;stroke-width:1;" x1="328.1323" x2="328.1323" y1="157.5781" y2="179.5781"/><polygon fill="#000000" points="324.1323,169.5781,328.1323,179.5781,332.1323,169.5781,328.1323,173.5781" style="stroke:#000000;stroke-width:1;"/><line style="stroke:#000000;stroke-width:1;" x1="164.5142" x2="164.5142" y1="213.5469" y2="231.5469"/><line style="stroke:#000000;stroke-width:1;" x1="164.5142" x2="234.3232" y1="231.5469" y2="231.5469"/><polygon fill="#000000" points="224.3232,227.5469,234.3232,231.5469,224.3232,235.5469,228.3232,231.5469" style="stroke:#000000;stroke-width:1;"/><line style="stroke:#000000;stroke-width:1;" x1="328.1323" x2="328.1323" y1="213.5469" y2="231.5469"/><line style="stroke:#000000;stroke-width:1;" x1="328.1323" x2="258.3232" y1="231.5469" y2="231.5469"/><polygon fill="#000000" points="268.3232,227.5469,258.3232,231.5469,268.3232,235.5469,264.3232,231.5469" style="stroke:#000000;stroke-width:1;"/><line style="stroke:#000000;stroke-width:1;" x1="246.3232" x2="246.3232" y1="125.5781" y2="145.5781"/><polygon fill="#000000" points="242.3232,135.5781,246.3232,145.5781,250.3232,135.5781,246.3232,139.5781" style="stroke:#000000;stroke-width:1;"/><line style="stroke:#000000;stroke-width:1;" x1="246.3232" x2="246.3232" y1="243.5469" y2="263.5469"/><polygon fill="#000000" points="242.3232,253.5469,246.3232,263.5469,250.3232,253.5469,246.3232,257.5469" style="stroke:#000000;stroke-width:1;"/><line style="stroke:#000000;stroke-width:1;" x1="246.3232" x2="246.3232" y1="297.5156" y2="317.5156"/><polygon fill="#000000" points="242.3232,307.5156,246.3232,317.5156,250.3232,307.5156,246.3232,311.5156" style="stroke:#000000;stroke-width:1;"/><line style="stroke:#000000;stroke-width:1;" x1="117.127" x2="117.127" y1="425.4531" y2="460.4531"/><polygon fill="#000000" points="113.127,450.4531,117.127,460.4531,121.127,450.4531,117.127,454.4531" style="stroke:#000000;stroke-width:1;"/><line style="stroke:#000000;stroke-width:1;" x1="117.127" x2="117.127" y1="372.9844" y2="391.4844"/><polygon fill="#000000" points="113.127,381.4844,117.127,391.4844,121.127,381.4844,117.127,385.4844" style="stroke:#000000;stroke-width:1;"/><line style="stroke:#000000;stroke-width:1;" x1="371.4502" x2="371.4502" y1="372.9844" y2="425.9688"/><polygon fill="#000000" points="367.4502,415.9688,371.4502,425.9688,375.4502,415.9688,371.4502,419.9688" style="stroke:#000000;stroke-width:1;"/><line style="stroke:#000000;stroke-width:1;" x1="117.127" x2="117.127" y1="494.4219" y2="514.4219"/><polygon fill="#000000" points="113.127,504.4219,117.127,514.4219,121.127,504.4219,117.127,508.4219" style="stroke:#000000;stroke-width:1;"/><line style="stroke:#000000;stroke-width:1;" x1="371.4502" x2="371.4502" y1="459.9375" y2="514.4219"/><polygon fill="#000000" points="367.4502,504.4219,371.4502,514.4219,375.4502,504.4219,371.4502,508.4219" style="stroke:#000000;stroke-width:1;"/><line style="stroke:#000000;stroke-width:1;" x1="246.3232" x2="246.3232" y1="351.4844" y2="371.4844"/><polygon fill="#000000" points="242.3232,361.4844,246.3232,371.4844,250.3232,361.4844,246.3232,365.4844" style="stroke:#000000;stroke-width:1;"/><line style="stroke:#000000;stroke-width:1;" x1="246.3232" x2="246.3232" y1="515.9219" y2="534.4219"/><polygon fill="#000000" points="242.3232,524.4219,246.3232,534.4219,250.3232,524.4219,246.3232,528.4219" style="stroke:#000000;stroke-width:1;"/><line style="stroke:#000000;stroke-width:1;" x1="246.3232" x2="246.3232" y1="568.3906" y2="588.3906"/><polygon fill="#000000" points="242.3232,578.3906,246.3232,588.3906,250.3232,578.3906,246.3232,582.3906" style="stroke:#000000;stroke-width:1;"/><line style="stroke:#000000;stroke-width:1;" x1="246.3232" x2="246.3232" y1="622.3594" y2="642.3594"/><polygon fill="#000000" points="242.3232,632.3594,246.3232,642.3594,250.3232,632.3594,246.3232,636.3594" style="stroke:#000000;stroke-width:1;"/><!--SRC=[HP0zJWCn48Lxds9eK58W8089RIf-0ae3Y4teXtWsQyNhNQqd9EaG4XMK78H88F4ZE8FtHeoNWixslFU-DzxWd0g2og9nYWrRWl0Stfhxy1A-cgVmtJo63yXikO3m4zRDdRolmu_CFyCxX5UvVaTHyw2KPwnPgUGA5t22Z7sbJ0QTU8JHgg8k2Cn1vzG8PLpP4dLN0IGftX9msNeWvRB6AVKLMK_GERmSRgTS4nR_qfYVEgnyNhBed3QPK2-n5iCc39PSuuHXH4kPgYGjf1KSvtCtCsuAdVtTtbPlP-z0Y3DolYiQNrd3CVwC7DN818FYXhGMlU-tM2b5O1nSqqIES7842yCv5CIesqtR2C1f_4On39scPJGCB7es4qzOJ_8_KpQt5hXj9ztX3wwISQKZEMNakKz0LjQhsF-yP9EjO3pSlf08yhATL8YjkQpKBm00]--></g></svg>